<svg width="38" height="38" viewBox="0 0 38 38" fill="none" xmlns="http://www.w3.org/2000/svg">
<path d="M9.5 1.1875C9.5 0.872555 9.37489 0.57051 9.15219 0.347811C8.92949 0.125111 8.62744 0 8.3125 0C7.99756 0 7.69551 0.125111 7.47281 0.347811C7.25011 0.57051 7.125 0.872555 7.125 1.1875V2.375H4.75C3.49022 2.375 2.28204 2.87545 1.39124 3.76624C0.500445 4.65704 0 5.86522 0 7.125L0 9.5H38V7.125C38 5.86522 37.4996 4.65704 36.6088 3.76624C35.718 2.87545 34.5098 2.375 33.25 2.375H30.875V1.1875C30.875 0.872555 30.7499 0.57051 30.5272 0.347811C30.3045 0.125111 30.0024 0 29.6875 0C29.3726 0 29.0705 0.125111 28.8478 0.347811C28.6251 0.57051 28.5 0.872555 28.5 1.1875V2.375H9.5V1.1875ZM38 33.25V11.875H0V33.25C0 34.5098 0.500445 35.718 1.39124 36.6088C2.28204 37.4996 3.49022 38 4.75 38H33.25C34.5098 38 35.718 37.4996 36.6088 36.6088C37.4996 35.718 38 34.5098 38 33.25ZM25.7782 21.0282L18.6532 28.1532C18.5429 28.2638 18.4119 28.3516 18.2676 28.4114C18.1234 28.4713 17.9687 28.5021 17.8125 28.5021C17.6563 28.5021 17.5016 28.4713 17.3574 28.4114C17.2131 28.3516 17.0821 28.2638 16.9718 28.1532L13.4093 24.5907C13.1863 24.3678 13.061 24.0653 13.061 23.75C13.061 23.4347 13.1863 23.1322 13.4093 22.9093C13.6322 22.6863 13.9347 22.561 14.25 22.561C14.5653 22.561 14.8678 22.6863 15.0907 22.9093L17.8125 25.6334L24.0968 19.3468C24.3197 19.1238 24.6222 18.9985 24.9375 18.9985C25.2528 18.9985 25.5553 19.1238 25.7782 19.3468C26.0012 19.5697 26.1265 19.8722 26.1265 20.1875C26.1265 20.5028 26.0012 20.8053 25.7782 21.0282Z" fill="#b97dfa"/>
</svg>