<svg width="375" height="126" viewBox="0 0 375 126" fill="none" xmlns="http://www.w3.org/2000/svg">
<path fill-rule="evenodd" clip-rule="evenodd" d="M211.594 18.5347C204.374 18.2529 197.331 17.8656 190.5 17.3808C174.956 18.4841 158.309 19.0821 141 19.0821C78.3983 19.0821 24.4647 11.26 0 0V112.14H375V34.3506C365.606 34.7254 355.911 34.9215 346 34.9215C288.526 34.9215 238.358 28.3283 211.594 18.5347Z" fill="#616C40" fill-opacity="0.4"/>
<path fill-rule="evenodd" clip-rule="evenodd" d="M211.594 32.3946C204.374 32.1128 197.331 31.7255 190.5 31.2406C174.956 32.344 158.309 32.942 141 32.942C78.3983 32.942 24.4647 25.1199 0 13.8599V126H375V48.2105C365.606 48.5853 355.911 48.7813 346 48.7813C288.526 48.7813 238.358 42.1882 211.594 32.3946Z" fill="#616C40"/>
</svg>
