<svg width="42" height="42" viewBox="0 0 42 42" fill="none" xmlns="http://www.w3.org/2000/svg">
<path d="M26.2706 13.0118L34.3412 7.9059L26.4353 0L21.3294 11.3647L18.3647 2.47058L10.4589 7.74116L17.0471 13.0117H2.05884V23.553H4.69413V42H37.3059V23.5529H39.9412V13.0118H26.2706ZM27.1021 3.46189L31.2389 7.59871L22.8004 12.9499L27.1021 3.46189ZM17.3079 5.55051L19.6438 12.5581L13.8041 7.88637L17.3079 5.55051ZM18.3647 39.3647H7.32943V22.7275H18.3647V39.3647ZM18.3647 20.9176H4.69413V15.6471H18.3647V20.9176ZM34.6706 39.3647H23.6353V22.7275H34.6706V39.3647ZM37.3059 20.9176H23.6353V15.6471H37.3059V20.9176Z" fill="#E4CD63"/>
</svg>
