<svg width="26" height="26" viewBox="0 0 26 26" fill="none" xmlns="http://www.w3.org/2000/svg">
<g clip-path="url(#clip0_31_29)">
<path fill-rule="evenodd" clip-rule="evenodd" d="M13.7638 2.14175C13.5286 2.01656 13.2664 1.95108 13 1.95108C12.7336 1.95108 12.4714 2.01656 12.2363 2.14175L2.48625 7.34175C2.22629 7.48018 2.00883 7.68665 1.85713 7.9391C1.70543 8.19155 1.6252 8.48048 1.625 8.775V10.1026L6.88188 13.2551C6.64972 13.782 6.52118 14.3486 6.50325 14.924L1.625 11.999V21.3151L7.27838 17.9238C7.52213 18.3706 7.82275 18.8224 8.18513 19.2725L1.68187 23.1758C1.77535 23.5201 1.97955 23.8241 2.26295 24.0408C2.54636 24.2575 2.89322 24.375 3.25 24.375H22.75C23.1068 24.375 23.4536 24.2575 23.737 24.0408C24.0204 23.8241 24.2246 23.5201 24.3181 23.1758L17.8149 19.2741C18.1773 18.8224 18.4779 18.3706 18.7216 17.9238L24.375 21.3151V11.9974L19.4968 14.924C19.4786 14.3491 19.3501 13.7831 19.1181 13.2568L24.375 10.1026V8.775C24.3748 8.48048 24.2946 8.19155 24.1429 7.9391C23.9912 7.68665 23.7737 7.48018 23.5138 7.34175L13.7638 2.14175V2.14175ZM11.4725 0.706877C11.9431 0.455936 12.4683 0.324677 13.0016 0.324677C13.535 0.324677 14.0601 0.455936 14.5308 0.706877L24.2808 5.90688C24.8003 6.18429 25.2347 6.59768 25.5375 7.10286C25.8404 7.60804 26.0002 8.18601 26 8.775V22.75C26 23.612 25.6576 24.4386 25.0481 25.0481C24.4386 25.6576 23.612 26 22.75 26H3.25C2.38805 26 1.5614 25.6576 0.951903 25.0481C0.34241 24.4386 1.62563e-08 23.612 1.62563e-08 22.75V8.775C-5.89008e-05 8.18585 0.160031 7.60776 0.463148 7.10257C0.766265 6.59737 1.20101 6.18407 1.72088 5.90688L11.4709 0.706877H11.4725ZM13 12.9886C15.704 10.2083 22.4656 15.0735 13 21.3281C3.53438 15.0719 10.296 10.2083 13 12.9886Z" fill="white"/>
</g>
<defs>
<clipPath id="clip0_31_29">
<rect width="26" height="26" fill="white"/>
</clipPath>
</defs>
</svg>
