<svg width="18" height="18" viewBox="0 0 18 18" fill="none" xmlns="http://www.w3.org/2000/svg">
<path d="M16.0694 8.32138L3.31944 2.32138C3.19106 2.26096 3.04817 2.23821 2.90736 2.25576C2.76656 2.27331 2.63363 2.33044 2.52399 2.42051C2.41436 2.51059 2.33253 2.62992 2.28801 2.76464C2.24348 2.89937 2.23808 3.04396 2.27244 3.18163L3.18144 6.81838L8.99994 9.00013L3.18144 11.1819L2.27244 14.8186C2.23744 14.9564 2.24238 15.1013 2.2867 15.2363C2.33102 15.3714 2.41289 15.4911 2.52272 15.5813C2.63255 15.6715 2.7658 15.7286 2.90689 15.7459C3.04799 15.7632 3.19108 15.7399 3.31944 15.6789L16.0694 9.67888C16.1983 9.61831 16.3072 9.52232 16.3835 9.40212C16.4599 9.28193 16.5004 9.1425 16.5004 9.00013C16.5004 8.85775 16.4599 8.71832 16.3835 8.59813C16.3072 8.47793 16.1983 8.38194 16.0694 8.32138Z" fill="#616C40"/>
</svg>
